<?xml version="1.0" standalone="no"?>
<!DOCTYPE svg PUBLIC "-//W3C//DTD SVG 1.1//EN" "http://www.w3.org/Graphics/SVG/1.1/DTD/svg11.dtd" >
<!--
2013-9-30: Created.
-->
<svg>
<metadata>
Created by iconfont
</metadata>
<defs>

<font id="iconfont" horiz-adv-x="1024" >
  <font-face
    font-family="iconfont"
    font-weight="500"
    font-stretch="normal"
    units-per-em="1024"
    ascent="896"
    descent="-128"
  />
    <missing-glyph />
    
    <glyph glyph-name="x" unicode="x" horiz-adv-x="1001"
d="M281 543q-27 -1 -53 -1h-83q-18 0 -36.5 -6t-32.5 -18.5t-23 -32t-9 -45.5v-76h912v41q0 16 -0.5 30t-0.5 18q0 13 -5 29t-17 29.5t-31.5 22.5t-49.5 9h-133v-97h-438v97zM955 310v-52q0 -23 0.5 -52t0.5 -58t-10.5 -47.5t-26 -30t-33 -16t-31.5 -4.5q-14 -1 -29.5 -0.5
t-29.5 0.5h-32l-45 128h-439l-44 -128h-29h-34q-20 0 -45 1q-25 0 -41 9.5t-25.5 23t-13.5 29.5t-4 30v167h911zM163 247q-12 0 -21 -8.5t-9 -21.5t9 -21.5t21 -8.5q13 0 22 8.5t9 21.5t-9 21.5t-22 8.5zM316 123q-8 -26 -14 -48q-5 -19 -10.5 -37t-7.5 -25t-3 -15t1 -14.5
t9.5 -10.5t21.5 -4h37h67h81h80h64h36q23 0 34 12t2 38q-5 13 -9.5 30.5t-9.5 34.5q-5 19 -11 39h-368zM336 498v228q0 11 2.5 23t10 21.5t20.5 15.5t34 6h188q31 0 51.5 -14.5t20.5 -52.5v-227h-327z" />
    

    
    <glyph glyph-name="f14" unicode="&#58900;" d="M951.84384 39.164672 858.964992 176.534272c-3.65568 5.244928-11.283456 9.217024-20.578304 10.646528-9.218048 1.350656-19.068928 0-26.377216-3.8144L622.756864 86.277888c-8.582144-4.369408-12.314624-11.121664-9.852928-17.79712 2.622464-6.592512 11.123712-11.838464 21.92896-13.425664l49.975296-7.469056c-49.657856-58.3168-115.441664-93.751296-179.639296-93.751296-125.056 0-264.572928 137.21088-264.572928 333.852672 0 23.199744-31.14496 42.1888-69.599232 42.1888s-69.599232-18.989056-69.599232-42.1888c0-234.381312 177.334272-418.071552 403.770368-418.071552 127.916032 0 242.802688 57.759744 317.723648 157.154304l95.818752-14.45888c2.461696-0.319488 4.845568-0.477184 7.230464-0.477184 0.157696 0 0.157696 0 0.397312 0 16.446464 0 29.794304 8.024064 29.794304 17.954816C956.132352 33.285888 954.543104 36.383488 951.84384 39.164672L951.84384 39.164672zM185.933824 419.894016c-9.295872 1.429504-17.002496 5.243904-20.578304 10.645504L70.729728 570.29504c-4.289536 6.27712-2.224128 13.666304 5.08416 18.671616 7.310336 5.243904 18.910208 7.38816 29.715456 5.799936l95.8976-14.459904c74.923008 99.233792 189.80864 157.233152 317.725696 157.233152 226.435072 0 403.769344-183.770112 403.769344-418.151424 0-23.358464-31.143936-42.1888-69.600256-42.1888-38.453248 0-69.598208 18.830336-69.598208 42.1888 0 196.641792-139.437056 333.853696-264.57088 333.853696-64.196608 0-129.983488-35.434496-179.64032-93.75232l49.975296-7.469056c10.884096-1.826816 19.306496-6.832128 21.927936-13.426688 2.542592-6.674432-1.271808-13.66528-9.85088-18.034688l-189.33248-97.010688c-5.402624-2.78016-12.235776-4.13184-19.147776-4.13184C190.621696 419.416832 188.237824 419.576576 185.933824 419.894016z"  horiz-adv-x="1024" />

    
    <glyph glyph-name="rectangle47" unicode="&#58880;" d="M1311.058008 737.019336 1492.077344 556 768-168.077344 43.922656 556 224.941992 737.019336 768 193.961328 1311.058008 737.019336Z"  horiz-adv-x="1536" />

    
    <glyph glyph-name="fenzhongshuxian" unicode="&#58892;" d="M496.364693 812l40.367668 0 0-390.602222-40.367668 0 0 390.602222ZM496.364693 179.257276l40.367668 0 0-390.602222-40.367668 0 0 390.602222ZM594.823319 300.327527c0-44.574339-36.138479-80.714865-80.712818-80.714865-44.566151 0-80.70463 36.138479-80.70463 80.714865 0 44.592763 36.138479 80.712818 80.70463 80.712818C558.684839 381.040345 594.823319 344.922336 594.823319 300.327527z"  horiz-adv-x="1024" />

    
    <glyph glyph-name="xiajiantou" unicode="&#58942;" d="M64.333726 568.207395c0-19.707854 7.655354-39.457664 22.728654-54.487985l370.856399-368.360556c29.906124-29.699416 78.187757-29.699416 108.171652 0l370.855376 368.360556c30.146601 29.904077 30.30726 78.428234 0.405229 108.531855-29.9051 30.065759-78.428234 30.227442-108.491946 0.444115L512.004605 307.976536 195.151144 622.695381c-29.983895 29.783327-78.666664 29.621645-108.491946-0.444115C71.749626 607.340671 64.333726 587.752544 64.333726 568.207395"  horiz-adv-x="1024" />

    
    <glyph glyph-name="fangzi-copy" unicode="&#58881;" d="M969.5 323.443l-468.75 363.867-468.75-363.867v148.359l468.75 363.867 468.75-363.867zM852.313 336.656v-351.563h-234.375v234.375h-234.375v-234.375h-234.375v351.563l351.563 263.672z"  horiz-adv-x="1000" />

    
    <glyph glyph-name="tuichu" unicode="&#59010;" d="M584.470443 218.082c-3.66 0-6.515 0-9.36 0-97.805 0-195.607-0.01-293.414 0-14.5 0.005-23.95 6.65-26.28 18.54-0.458 2.375-0.415 4.87-0.415 7.3-0.018 86.915-0.02 173.825-0.012 260.739 0.003 16.485 8.93 25.255 25.672 25.255 98.247 0.005 196.497 0.005 294.749 0.005 2.645 0 5.31 0 9.06 0 0 2.82 0 5.362 0 7.912 0 77.352-0.01 154.71 0.01 232.069 0 10.645 5.075 19.135 13.67 22.387 9.89 3.745 18.665 2.02 26.12-5.857 4.275-4.517 8.93-8.672 13.32-13.065 55.385-55.265 110.76-110.555 166.13-165.82 71.12-70.965 142.245-141.912 213.365-212.874 11.84-11.802 11.905-24.252 0.205-35.927-101.78-101.605-203.549-203.219-305.359-304.784-28.955-28.885-58.065-57.595-86.995-86.505-7.445-7.45-15.75-10.715-25.915-6.855-9.885 3.75-14.54 11.53-14.54 23.765-0.015 74.905-0.01 149.82-0.01 224.724C584.470443 211.737 584.470443 214.377 584.470443 218.082zM401.643443 789.828c0-29.415 0-58.215 0-87.827-2.882 0-5.477 0-8.07 0-74.465 0-148.93 0.01-223.394-0.005-47.187-0.007-81.935-34.827-81.937-82.107-0.007-163.602 0.293-327.202-0.197-490.791-0.135-43.285 32.795-74.47 63.24-80.165 6.727-1.245 13.677-1.81 20.525-1.825 73.797-0.13 147.597-0.08 221.397-0.08 2.622 0 5.247 0 8.302 0 0-29.325 0-58.115 0-87.325-1.05-0.21-2.275-0.68-3.503-0.68-78.467 0-156.942-0.8-235.389 0.34-76.67 1.1-144.565 59.285-159.197 134.595-2.065 10.61-3.075 21.595-3.087 32.405-0.19 165.385-0.627 330.762 0.102 496.134 0.305 69.077 34.625 118.665 94.56 150.892 21.145 11.375 44.502 16.512 68.577 16.572 77.797 0.21 155.595 0.08 233.394 0.075C398.281443 790.035 399.593443 789.92 401.643443 789.828z"  horiz-adv-x="1027" />

    
    <glyph glyph-name="icon" unicode="&#58954;" d="M512.133 496.483l-292.16-292.155c-12.27-12.28-32.186-12.28-44.457 0-12.281 12.27-12.281 32.186 0 44.457l314.388 314.388c12.27 12.28 32.186 12.28 44.457 0l314.387-314.388c6.14-6.136 9.211-14.183 9.211-22.228s-3.071-16.092-9.211-22.228c-12.27-12.28-32.186-12.28-44.457 0l-292.159 292.155z"  horiz-adv-x="1024" />

    
    <glyph glyph-name="gongyeqitiyun" unicode="&#58897;" d="M346.112 144.92672 205.83424 144.92672c0 0-186.97216 119.98208-50.51392 258.14016 24.95488 25.25184 67.31776 56.1152 141.19936 14.92992 0 0-3.71712 163.66592 125.35808 202.02496 129.0752 38.35904 187.96544-26.19392 186.08128-70.144-1.8432-43.95008-30.80192-103.81312-158.96576-179.57888 0 0-97.28-72.01792-93.56288-140.27776C359.24992 161.78176 346.112 144.92672 346.112 144.92672zM405.9648 148.69504c0 0-28.04736 115.02592 130.95936 223.50848 0 0 121.55904 59.83232 115.968 153.35424 0 0 6.08256 148.82816 96.3584 16.85504 17.77664-25.98912 8.3968-48.62976 5.59104-71.0656 0 0 212.2752-53.3504 153.36448-212.3264 0 0-49.55136-150.54848-197.33504-110.31552 0 0-41.1648 64.512-62.63808 26.1632-21.53472-38.32832-69.1712-47.68768-87.93088-29.93152-18.688 17.77664-35.52256 28.04736-65.4848 0l-90.7264 0"  horiz-adv-x="1024" />

    
    <glyph glyph-name="xinfeng" unicode="&#58882;" d="M1021.866667 596C1024 605.6 1023.2 615.466667 1016.533333 623.466667 1015.466667 624.533333 1013.333333 624.266667 1012 625.6 1000.8 651.466667 981.066667 669.333333 944 669.333333L112 669.333333c-39.466667 0-82.133333-15.2-101.333333-44.533333C9.866667 624 8.533333 624 7.733333 623.466667 1.066667 615.466667 0 605.6 1.866667 596.266667 1.6 593.866667 0 592 0 589.333333l0-512C0 24 58.933333-34.666667 112-34.666667l832 0c53.066667 0 80.266667 58.933333 80.266667 112L1024.266667 589.333333C1024.266667 592.266667 1022.133333 593.333333 1021.866667 596zM928 605.333333l16 0c0.266667 0 0.266667 0 0.533333 0L512 260.533333 81.333333 604C91.2 605.866667 103.2 605.333333 112 605.333333L928 605.333333zM944 29.333333 112 29.333333c-17.6 0-48 30.133333-48 48l0 458.666667 427.2-341.333333C497.066667 189.333333 504.533333 186.666667 512 186.666667c7.466667 0 14.933333 2.666667 21.066667 7.733333l427.2 341.333333 0-458.666667C960.266667 59.466667 961.6 29.333333 944 29.333333z"  horiz-adv-x="1024" />

    
    <glyph glyph-name="xt5" unicode="&#58893;" d="M875.424002 747.892285c199.949931-199.953276 199.949931-524.141896 0-724.095172-199.953276-199.953276-524.141896-199.953276-724.095172 0-199.949931 199.953276-199.949931 524.141896 0 724.095172C351.282106 947.842216 675.467381 947.842216 875.424002 747.892285M830.174535 69.043235c62.341778 62.003946 104.922036 141.086823 122.365558 227.26418-13.566813-19.841798-26.367649-27.200523-34.432142 17.212726-7.873836 72.386438-74.624159 25.986333-116.672581 51.648213-43.96838-29.568694-142.913125 57.602091-126.078369-40.767335 25.92278-44.413249 139.969635 59.455151 83.200418-34.495695-36.3521-65.599686-132.607565-211.202091-120.064284-286.274463 1.535298-109.75538-112.126896-22.912393-151.358934 13.506605-26.304096 72.894859-9.024472 200.448318-77.825204 236.09465-74.754609 3.264598-139.073208 9.981107-167.936134 93.629738-18.252982 67.37916 17.443523 137.634912 82.621755 162.624472 93.823741 59.010283 127.426354-69.118495 215.423323-71.426458 27.327628 28.608715 102.015339 37.439185 107.965872 69.442948-57.598746 10.302215 73.279519 48.574273-5.565872 70.399582-29.354622 1.030221-53.986281-21.93569-55.013157-51.290312-0.341177-9.686758 1.976821-19.283204 6.693095-27.749082-84.22395-19.647795-86.909884 121.984243-167.936134 77.246541-1.983511-70.399582-132.159352-22.845496-44.801254-8.572914 30.016907 12.797491-48.768276 51.2-6.398746 44.159038 20.928882 1.087084 91.392017 25.598328 72.383093 42.302633 39.168485 24.384138 72.06533-58.240962 110.528046 1.919958 27.521631 46.717868-11.837512 55.230574-46.463657 31.742863-19.584243 21.888861 34.626145 69.439603 82.240439 89.726269 13.309257 6.479023 27.949775 9.743621 42.750846 9.536238 23.999477-27.839394 68.543176-32.702842 70.784243 3.267943-150.064467 71.433148-327.306043 54.200353-460.8-44.801254 20.671327-9.472686 32.385079-21.313543 12.476383-36.291893-19.965558-57.030117-72.513543-96.25881-132.865121-99.198955-28.615405-49.407147-47.45374-103.858365-55.48813-160.383406 46.145894-15.292768 56.832769-45.440125 46.848318-55.548337-23.293709-21.684824-39.191899-50.139675-45.440125-81.344013 40.386019-244.105625 271.011799-409.252133 515.117423-368.862769C678.782152-40.959666 764.012909 2.848161 830.174535 69.043235"  horiz-adv-x="1026" />

    
    <glyph glyph-name="mulu-copy" unicode="&#58883;" d="M0-128v180.706h1144.471v-180.706h-1144.471zM0 474.353h1144.471v-180.706h-1144.471v180.706zM0 896h1144.471v-180.706h-1144.471v180.706z"  horiz-adv-x="1145" />

    
    <glyph glyph-name="10105" unicode="&#58990;" d="M298.667 597.333v-85.333h256v85.333h-256zM298.667 426.667h384v42.667h-384v-42.667zM682.667 384h-128v-42.667h128v42.667zM554.667 256h128v42.667h-128v-42.667zM128 810.667v-426.667h85.333v341.333h554.667v-725.333h-213.333v-85.333h298.667v896h-725.333zM414.165 149.333c0 10.24-1.536 20.053-3.755 29.568l59.221 39.723-38.016 65.109-59.904-40.021c-11.051 9.728-23.765 17.152-37.717 21.973v75.648h-71.637v-75.989c-13.611-4.821-25.941-12.203-36.779-21.76l-59.733 40.149-37.973-65.109 59.221-39.68c-2.219-9.515-3.755-19.371-3.755-29.611 0-10.283 1.536-20.139 3.755-29.653l-59.093-39.637 38.016-65.109 59.563 40.149c10.795-9.557 23.168-16.896 36.779-21.76v-75.989h71.637v75.605c13.952 4.779 26.667 12.203 37.717 21.931l59.733-39.979 38.101 65.109-59.136 39.68c2.176 9.557 3.755 19.371 3.755 29.653zM298.752 72.491c-39.509 0-71.637 34.432-71.637 76.843s32.128 76.8 71.637 76.8c39.595 0 71.637-34.389 71.637-76.8s-32.043-76.843-71.637-76.843z"  horiz-adv-x="1024" />

    
    <glyph glyph-name="biaoge" unicode="&#58925;" d="M980.296348-128C979.976633-128 979.659971-127.985883 979.342548-127.975963 979.025123-127.985883 978.70846-128 978.388746-128L43.282935-128C26.637212-128 13.142845-114.505633 13.142845-97.859911 13.142845-96.232346 13.275996-94.636066 13.524365-93.078318L13.524365 174.723623C13.275996 176.281371 13.142845 177.87765 13.142845 179.505215 13.142845 181.13278 13.275996 182.72906 13.524365 184.286808L13.524365 442.169227C13.275996 443.726975 13.142845 445.323254 13.142845 446.950819 13.142845 448.578384 13.275996 450.174664 13.524365 451.732412L13.524365 865.859911C13.524365 882.505633 27.018732 896 43.664455 896 47.381605 896 50.939662 895.323183 54.227221 894.092399L969.733581 894.092399C973.02114 895.323183 976.579196 896 980.296348 896 996.94207 896 1010.436437 882.505633 1010.436437 865.859911L1010.436437-97.859911C1010.436437-114.505633 996.94207-128 980.296348-128L980.296348-128ZM696.063859-67.719821 950.156259-67.719821 950.156259 149.365126 696.063859 149.365126 696.063859-67.719821 696.063859-67.719821ZM950.156259 209.645307 950.156259 416.81073 696.063859 416.81073 696.063859 209.645307 950.156259 209.645307 950.156259 209.645307ZM388.177123-67.719821 635.78368-67.719821 635.78368 149.365126 388.177123 149.365126 388.177123-67.719821 388.177123-67.719821ZM635.78368 209.645307 635.78368 416.81073 388.177123 416.81073 388.177123 209.645307 635.78368 209.645307 635.78368 209.645307ZM73.804544-67.719821 327.896944-67.719821 327.896944 149.365126 73.804544 149.365126 73.804544-67.719821 73.804544-67.719821ZM327.896944 209.645307 327.896944 416.81073 73.804544 416.81073 73.804544 209.645307 327.896944 209.645307 327.896944 209.645307ZM73.804544 707.147541 73.804544 477.090909 327.896944 477.090909 327.896944 707.147541 73.804544 707.147541 73.804544 707.147541ZM388.177123 707.147541 388.177123 477.090909 635.78368 477.090909 635.78368 707.147541 388.177123 707.147541 388.177123 707.147541ZM950.156259 707.147541 696.063859 707.147541 696.063859 477.090909 950.156259 477.090909 950.156259 707.147541 950.156259 707.147541Z"  horiz-adv-x="1024" />

    
    <glyph glyph-name="guanbi" unicode="&#58945;" d="M817.707 645.174c14.122 14.122 14.39 37.69 0.018 52.061-14.471 14.471-37.679 14.363-52.061-0.018L505.469 437.021 245.274 697.217c-14.122 14.122-37.689 14.389-52.061 0.018-14.471-14.471-14.363-37.68 0.019-52.061l260.195-260.195-260.196-260.196c-14.122-14.122-14.39-37.69-0.019-52.061 14.471-14.471 37.68-14.363 52.061 0.018l260.195 260.195L765.663 72.74c14.122-14.122 37.691-14.389 52.061-0.018 14.472 14.471 14.363 37.68-0.018 52.061L557.512 384.979l260.195 260.195z"  horiz-adv-x="1024" />

    
    <glyph glyph-name="quanxianguanli" unicode="&#58973;" d="M868.526019 191.68188c0.063445 1.702782 0.097214 3.414773 0.097214 5.13188 0 74.954109-60.762899 135.717008-135.717007 135.717008s-135.717008-60.762899-135.717008-135.717008c0-1.717108 0.032746-3.430122 0.094144-5.13188-11.642155-6.691399-19.482727-19.25146-19.482727-33.645285v-135.714961c0-21.416775 17.359366-38.776142 38.776142-38.776142h232.656851c21.415752 0 38.777165 17.359366 38.777165 38.776142V158.037618c-0.001023 14.392802-7.840572 26.953885-19.484774 33.644262zM752.294808 85.674521v-43.965328h-38.777165v43.965328c-11.589966 6.704702-19.388583 19.235087-19.388583 33.587979 0 21.414729 17.359366 38.775118 38.777166 38.775118 21.414729 0 38.775118-17.359366 38.775118-38.775118 0-14.351869-7.797593-26.883277-19.386536-33.587979zM635.966383 196.814784c0 53.53938 43.401486 96.939843 96.939843 96.939842 53.537334 0 96.939843-43.401486 96.939842-96.939842H635.966383zM647.975904 368.590032c5.841032 1.537006-7.357572 9.773598-16.908088 13.834076-20.454868 8.696056-35.269271 12.500709-50.723242 14.049995 74.456782 30.767747 126.855176 104.089683 126.855177 189.65957 0 113.296369-91.845825 205.142194-205.142194 205.142194-113.297392 0-205.142194-91.844801-205.142194-205.142194 0-91.617627 60.063981-169.19754 142.95997-195.536418C266.943748 358.517629 135.988184 206.886163 135.988184 24.661935c0-16.243963 1.046842-32.242332 3.064802-47.937802h76.076676l286.948361 2.89391a5.347798 5.347798 0 0 1 5.29868 5.328355c0.12689 35.340903 1.351787 128.228453 1.351787 158.605298 0 37.70167 26.653033 76.907601 27.288506 83.911108 2.87242 31.697933 29.335119 115.6336 111.958908 141.127228z"  horiz-adv-x="1024" />

    
    <glyph glyph-name="biaodan" unicode="&#58894;" d="M717.688 666.934q-9.88 0-16.616 6.737t-11.228 15.718-6.736 18.413-2.245 15.718v110.48h1.796q8.083 0 15.269-1.796t17.515-8.532 25.15-18.863 37.275-31.886q24.251-21.557 38.622-36.378t22.006-25.149 9.43-17.515 1.796-12.576v-14.37h-132.036zM997.030 243.88q2.694-7.186 3.592-17.965t-8.982-20.658q-4.492-4.492-8.083-8.533t-6.288-6.737q-3.592-3.593-6.287-5.389l-76.348 75.449q5.39 4.492 12.127 10.779t11.227 9.879q10.779 9.88 23.353 8.533t20.659-5.84q8.982-4.492 19.312-15.718t15.718-23.802zM679.964 160.347q19.761 0 33.233 10.778l-174.252-181.437h-247.904q-17.064 0-37.274 9.88t-37.725 26.048-29.191 37.274-11.678 43.564v611.677q0 18.862 8.533 39.521t23.352 37.274 33.683 27.846 39.521 11.228h344.013v-112.276q0-17.065 5.389-36.826t16.616-36.377 29.192-27.844 43.114-11.228h131.138v-297.305l-123.053-127.545q9.879 14.371 9.879 31.436 0 23.353-16.616 39.97t-39.97 16.616h-336.827q-23.352 0-39.521-16.616t-16.167-39.97 16.167-39.521 39.521-16.167h336.827zM343.137 497.173q-23.352 0-39.521-16.616t-16.167-39.97 16.167-39.521 39.521-16.167h336.827q23.352 0 39.97 16.167t16.616 39.521-16.616 39.97-39.97 16.616h-336.827zM681.761 47.173l34.132 34.132q13.474 13.474 29.641 30.089t32.335 32.785q38.622 38.623 87.126 86.227l75.449-75.45-149.102-149.102q-12.575-12.575-21.108-21.556t-9.43-9.88q-4.492-3.593-9.88-7.635t-10.778-6.736-16.616-6.737-22.904-7.635-22.456-6.287-16.166-3.593q-10.779-1.796-14.372 2.694t-1.796 15.269q0.898 5.39 3.592 16.167t6.288 22.006 6.737 21.108 4.94 13.474q5.39 11.677 14.372 20.658z"  horiz-adv-x="1069" />

    
    <glyph glyph-name="aliyun" unicode="&#58998;" d="M446.976 616.96H254.976c-70.656 0-128-56.832-128-127.488v-210.944c0-70.144 57.344-127.488 128-127.488h192c4.608 0-11.776 71.68-11.776 71.68L266.24 256c-17.408 3.584-31.744 20.48-31.744 38.4V473.088c0 17.92 13.824 34.816 31.744 38.4l168.96 33.28c0 0.512 16.384 72.192 11.776 72.192z m130.048 0h192c70.656 0 128-56.832 128-127.488v-210.944c0-70.144-57.344-127.488-128-127.488h-192c-4.608 0 11.776 71.68 11.776 71.68l168.96 33.28c17.408 3.584 31.744 20.48 31.744 38.4V473.088c0 17.92-13.824 34.816-31.744 38.4l-168.96 33.792s-16.384 71.68-11.776 71.68z"  horiz-adv-x="1024" />

    
    <glyph glyph-name="caidan" unicode="&#58765;" d="M62.951 788.534v-140.883h892.295V788.534H62.951z m0-469.61h892.295V459.806H62.951v-140.882z m0-328.726h892.295V131.08H62.951v-140.882z"  horiz-adv-x="1024" />

    
    <glyph glyph-name="caidanguanli" unicode="&#59328;" d="M1003.162 34.782l-52.054 35.686c0 6.69 2.27 13.38 2.27 22.306s0 15.6-2.27 22.307l47.53 37.905c4.524 4.471 4.524 8.908 2.254 13.38l-45.261 78.029c-2.253 2.235-6.776 4.471-13.568 2.235l-56.576-22.306c-11.315 8.91-24.9 15.616-38.485 22.306l-9.046 57.976c2.253 6.673-4.522 11.127-9.062 11.127h-90.539c-4.522 0-11.315-4.454-11.315-8.908l-9.045-60.195c-13.585-4.454-24.9-13.38-38.469-22.306l-54.34 22.306c-6.775 2.236-11.298 0-15.838-4.454l-45.26-78.046c-2.27-2.236 0-8.909 4.54-13.38l47.513-35.67c0-6.707-2.253-13.38-2.253-22.306s0-15.616 2.253-22.306l-47.514-37.922c-4.54-4.454-4.54-8.909-2.27-13.363l45.261-78.046c2.27-2.236 6.776-4.454 13.568-2.236l56.576 22.306c11.315-8.908 24.9-15.598 38.485-22.306l9.046-57.958c0-4.472 4.54-8.909 11.315-8.909h90.539c4.522 0 11.315 4.455 11.315 8.909l9.045 57.958c13.585 6.708 27.153 13.38 38.468 22.306l56.576-22.306c4.54-2.218 11.316 0 13.586 4.472l45.26 78.029c2.304 4.471 2.304 11.144-2.235 13.38z m-219.529-20.07c-43.008 0-79.223 35.686-79.223 78.045s36.215 78.03 79.223 78.03 79.224-35.67 79.224-78.03-36.216-78.046-79.224-78.046z m-288.7 79.155c0 150.818 122.249 273.066 273.067 273.066 11.588 0 22.938-0.955 34.133-2.355V810.667c0 28.28-22.92 51.2-51.2 51.2H68.267c-28.28 0-51.2-22.92-51.2-51.2v-853.334c0-28.28 22.92-51.2 51.2-51.2h501.777c-46.439 48.948-75.11 114.927-75.11 187.734zM102.4 759.467h614.4v-51.2H102.4v51.2z m0-221.867h580.267v-51.2H102.4v51.2z m0-204.8h443.733v-51.2H102.4v51.2z m375.467-256H102.4V128h375.467v-51.2z"  horiz-adv-x="1024" />

    
    <glyph glyph-name="fanyeyoujiantou" unicode="&#58970;" d="M241.504374-105.37094a77.230792 77.230792 0 0 0 0 108.765481l301.623469 303.667385A138.256256 138.256256 0 0 1 584.809112 383.708742a184.755325 184.755325 0 0 1-41.681269 77.376786L241.504374 764.752912a77.230792 77.230792 0 0 0 0 108.765482 76.135837 76.135837 0 0 0 107.962515 0l431.996053-435.061926a77.376786 77.376786 0 0 0 0-108.765482l-431.996053-435.061926a76.135837 76.135837 0 0 0-107.962515 0z"  horiz-adv-x="1024" />

    
    <glyph glyph-name="fanyezuojiantou" unicode="&#58971;" d="M781.489473 873.470212a77.39631 77.39631 0 0 0 0-108.998584L479.292727 460.884968a138.479409 138.479409 0 0 1-41.624291-76.811083 186.10228 186.10228 0 0 1 41.843751-76.811083l302.196746-303.58666a77.39631 77.39631 0 0 0 0-108.998584 76.299009 76.299009 0 0 0-108.193897 0L240.666297 329.94036a76.518469 76.518469 0 0 0 0 108.26705L673.515036 873.470212a76.299009 76.299009 0 0 0 108.193897 0z"  horiz-adv-x="1024" />

    
    <glyph glyph-name="shangshengxiajiangjiantou" unicode="&#58886;" d="M749.9-63.1V405h209.9l-447 425.9L65.8 405h209.8v-468.1z"  horiz-adv-x="1024" />

    
    <glyph glyph-name="chart" unicode="&#58939;" d="M83.992-24.092h225.786v383.897h-225.786v-383.897zM407.794-24.092h225.786v514.779h-225.786v-514.779zM730.556 665.181v-689.273h225.816v689.273h-225.816zM632.956 760.521l-92.813 29.784c-13.113 3.192-25.175-3.41-29.338-15.75-3.964-12.34 3.33-25.77 15.393-28.942l37.248-11.488-481.704-203.435c-11.92-5.237-17.552-18.975-12.736-31.073 4.742-11.946 18.271-17.786 30.217-13.043l0.172 0.069 491.735 205.993-15.194-42.769c-4.371-12.132 1.874-25.77 13.946-30.013 11.816-4.136 24.748 2.090 28.884 13.906 0.086 0.247 0.168 0.494 0.246 0.744l30.597 92.574c4.619 13.832-2.83 28.793-16.652 33.443z"  horiz-adv-x="1116" />

    
    <glyph glyph-name="xianshiqi" unicode="&#59017;" d="M682.276571-42.642286a38.546286 38.546286 0 0 1-8.923428 13.019429c-7.753143 7.314286-13.092571 13.385143-19.017143 63.853714h284.672c46.957714 0 84.992 36.425143 84.992 86.893714V772.388571c0 21.211429-16.822857 38.326857-37.522286 38.326858H36.571429c-20.114286 0-36.498286-16.676571-36.498286-37.302858v-654.043428c0-47.981714 35.693714-86.893714 84.992-86.893714h290.596571c0-6.070857-1.755429-11.556571-1.755428-17.627429-1.828571-17.627429-11.337143-36.571429-11.337143-36.571429-1.755429-1.755429-5.851429-7.826286-5.851429-7.826285a38.326857 38.326857 0 0 1-8.557714-13.019429h-49.298286a42.934857 42.934857 0 0 1-42.788571-42.715428 43.154286 43.154286 0 0 1 42.788571-42.642286h426.422857a42.934857 42.934857 0 0 1 42.788572 42.642286 43.154286 43.154286 0 0 1-42.788572 42.715428h-42.934857z m256.365715 256H85.357714v512h853.284572v-512z"  horiz-adv-x="1024" />

    
    <glyph glyph-name="zhanghuguanli" unicode="&#59048;" d="M490.116597 342.786343c-146.131195 0-264.615727 118.484531-264.615727 264.650519v22.068621c0 146.165987 118.484531 264.649496 264.615727 264.649496 146.165987 0 264.650519-118.483508 264.650519-264.649496v-22.068621c0-146.165987-118.484531-264.650519-264.650519-264.650519z m198.514239 286.71914c0 109.60735-88.871073 198.478424-198.514239 198.478424-109.60735 0-198.478424-88.871073-198.478424-198.478424v-22.068621c0-109.60735 88.871073-198.478424 198.478424-198.478424 109.642143 0 198.514239 88.871073 198.514239 198.478424v22.068621zM489.204831 454.322625c-24.664749-2.947122-28.279067 18.069541 1.543146 22.454408 55.014988 8.104585 100.589976 45.225017 120.66008 95.29232 7.333012 16.770965 25.296129 12.279674 21.155833-6.490831-23.156396-59.57484-77.713966-103.430674-143.359059-111.255897z m133.254933 164.165944c0 6.070252 4.947685 11.016915 11.016915 11.016914 6.105045 0 11.016915-4.946662 11.016914-11.016914 0-6.105045-4.91187-11.051707-11.016914-11.051707-6.069229 0-11.016915 4.946662-11.016915 11.051707zM446.01517 298.683892c48.417733 0 94.941326-7.860015 138.516773-20.490683-15.612583-17.226337-29.365818-36.418444-40.313147-57.400315-29.436426 6.771217-61.85579 11.2973-98.800214 11.753695-147.429771 14.31503-321.102229-123.150808-330.190211-132.343167-26.706245-18.933211-44.102451-55.663764-44.10245-86.398766 0-30.733978 20.12434-65.905012 44.10245-67.977207h435.868066c14.630209-24.910343 32.80515-47.295166 54.03159-66.171072H115.228371c-56.382125-0.657986-108.22691 68.481697-108.22691 136.195915 0 51.29527 26.26213 99.188047 64.12446 128.454604-0.360204-0.278339 0.421602 0 0 0 76.276221 65.891709 211.70568 154.376996 374.889249 154.376996zM1012.92578 56.593182c-2.174526-9.261944-10.069333-16.068977-19.612686-16.875343-19.576871-1.684362-37.541011-13.402241-47.997154-31.402197-9.894348-17.016559-11.508102-37.435611-4.385891-54.627155 3.64911-8.736988 1.227967-18.806321-5.963828-24.980951-25.787316-22.068621-55.505152-38.242999-88.274486-48.102554a22.217001 22.217001 0 0 0-6.385431-0.946558c-6.210445 0-13.718443 3.333932-17.96414 9.193382-11.262508 15.647375-30.314423 25.01472-50.979068 25.01472-19.437701 0-37.892005-8.595772-49.330522-22.945594a22.109554 22.109554 0 0 0-24.559349-7.122212c-32.559557 11.262508-61.610196 28.699646-86.416162 51.82125-6.841825 6.349615-8.876158 16.314571-5.086855 24.804942 7.753591 17.437138 6.28003 38.312584-3.929496 55.890938-9.718339 16.736173-26.454512 28.313859-44.734853 30.945803-9.262968 1.36816-16.665565 8.384971-18.454304 17.507745-3.052522 15.508205-4.596691 31.120788-4.596692 46.487778 0 17.543561 2.070148 35.612079 6.210446 53.681619 2.104941 9.121751 9.82374 15.927761 19.2269 16.911159 19.156292 1.964748 36.734646 13.68365 46.979987 31.331589 9.82374 16.945951 11.508102 37.260625 4.490268 54.381561-3.542686 8.66638-1.192152 18.560728 5.859451 24.735358 26.208918 22.840194 56.417941 39.505759 89.819678 49.576115 9.086959 2.700505 18.910699-0.63138 24.384364-8.316409 11.2973-15.787568 30.4188-25.225521 51.155077-25.225522 19.577894 0 38.068014 8.66638 49.505507 23.191189 5.788843 7.367805 15.717983 10.245342 24.595164 7.192819 31.577183-10.911514 60.20622-28.104081 85.188195-51.084469 7.016811-6.456039 9.052167-16.736173 4.947685-25.36776-8.350179-17.717524-7.122211-39.013549 3.367701-57.048298 9.998725-17.262152 27.226085-28.910447 45.99659-31.190372 9.543354-1.157359 17.22736-8.280594 19.016099-17.647939 2.947122-15.297404 4.420683-30.489408 4.420683-45.12064-0.001023-17.823947-2.176572-36.207643-6.492878-54.663994z m-60.907185 74.592882c-22.841218 6.91141-42.839691 22.805402-55.224765 44.488237-13.087063 22.805402-16.454764 49.365314-9.788947 73.573669-12.490475 10.139941-26.068725 18.384719-40.558741 24.664749-17.262152-15.823384-40.488133-24.979928-64.697512-24.979927-25.857924 0-50.242288 10.17371-67.715241 27.822672-15.719007-6.070252-30.349215-14.244422-43.716664-24.52558 5.121648-23.085788 1.402953-48.137347-10.771321-69.363787-12.770861-22.315238-33.43653-38.4538-56.978712-45.01524-1.438769-9.191336-2.174526-18.314111-2.174526-27.191292 0-7.262404 0.455371-14.595416 1.402953-21.928429 22.314215-7.087419 41.36613-22.594601 53.611012-43.99705 12.736069-22.208814 16.278755-48.172139 10.244318-71.960938 12.665461-10.385535 26.665313-18.875906 41.857317-25.437346 17.226337 15.893992 36.944424 24.771173 64.451917 24.771173 25.78834 0 50.067302-10.105149 67.50444-27.611871 15.262612 5.823636 29.436426 13.68365 42.453905 23.437805-5.193279 23.156396-1.473561 48.27754 10.736528 69.644174 13.051247 22.771633 34.208103 39.015595 58.312081 45.330418 1.544169 9.403161 2.314719 18.700921 2.314718 27.753087a170.455183 170.455183 0 0 1-1.26276 20.525476zM776.835737 11.999544c-48.733934 0-88.204901 44.418652-88.204901 99.221816 0 54.838979 39.470967 99.256608 88.204901 99.256608 48.699142 0 88.204901-44.417629 88.204901-99.256608 0-54.803163-39.505759-99.221816-88.204901-99.221816z m0 154.376997c-24.349571 0-44.102451-24.700565-44.10245-55.154158 0-30.419823 19.75288-55.119365 44.10245-55.119365 24.349571 0 44.102451 24.699542 44.102451 55.119365 0 30.453592-19.75288 55.154157-44.102451 55.154158z"  horiz-adv-x="1024" />

    
    <glyph glyph-name="sousuo" unicode="&#59900;" d="M456.533 115.2c-85.333 0-166.4 29.867-230.4 93.867-64 64-98.133 145.067-98.133 230.4s34.133 170.667 93.867 230.4c64 64 145.067 98.133 234.667 98.133s170.667-34.133 230.4-93.867c128-128 128-337.067 0-460.8-64-68.267-149.333-98.133-230.4-98.133zM456.533 682.667c-64 0-123.733-25.6-170.667-72.533s-72.533-106.667-72.533-170.667 25.6-123.733 72.533-170.667c93.867-93.867 247.467-93.867 341.333 0s93.867 247.467 0 341.333c-46.933 46.933-106.667 72.533-170.667 72.533zM595.371 240.555l60.331 60.373 256.427-256.427-60.288-60.373z"  horiz-adv-x="1024" />

    
    <glyph glyph-name="icon1" unicode="&#58633;" d="M511.867 496.982l292.16-292.155c12.27-12.28 32.186-12.28 44.457 0 12.281 12.27 12.281 32.186 0 44.457l-314.388 314.388c-12.27 12.28-32.186 12.28-44.457 0l-314.387-314.388c-6.14-6.136-9.211-14.183-9.211-22.228s3.071-16.092 9.211-22.228c12.27-12.28 32.186-12.28 44.457 0l292.159 292.155z"  horiz-adv-x="1024" />

    
    <glyph glyph-name="bug" unicode="&#58940;" d="M1011.794794 341.128232c-8.083007 8.107664-17.703713 12.164859-28.797114 12.164859h-143.353455v188.15295l110.723301 110.718818c8.10094 8.103181 12.1671 17.703713 12.1671 28.803838 0 11.088917-4.063919 20.687208-12.1671 28.797114-8.10094 8.105423-17.703713 12.158134-28.797114 12.158134s-20.696174-4.054953-28.797114-12.158134l-110.723301-110.718817H241.914138L131.195321 709.765811c-8.107664 8.105423-17.703713 12.158134-28.797114 12.158134-11.100125 0-20.696174-4.054953-28.803839-12.158134-8.107664-8.107664-12.158134-17.708197-12.158134-28.797114 0-11.100125 4.05047-20.700658 12.158134-28.803838l110.718818-110.718818v-188.15295H40.959731c-11.093401 0-20.691691-4.057194-28.797114-12.164859C4.054953 333.027293 0 323.415552 0 312.331118c0-11.093401 4.054953-20.705141 12.162617-28.799355 8.105423-8.107664 17.703713-12.173825 28.797114-12.173825h143.353455c0-68.248286 12.377805-126.714475 37.119966-175.342527l-129.269835-145.272217c-7.255877-8.540282-10.562155-18.456872-9.918831-29.756494 0.636598-11.290656 5.009851-20.785836 13.117515-28.474332 8.107664-6.825501 17.275579-10.246097 27.514951-10.246097 11.947429 0 22.18456 4.462914 30.7226 13.438055l117.1117 132.479726 9.605016-8.975142c5.971473-5.556787 15.24474-12.47195 27.837733-20.788078 12.590752-8.316128 26.667647-16.63898 42.23517-24.977523 15.57873-8.316128 34.138713-15.359059 55.679949-21.11086 21.550203-5.767492 43.201275-8.652359 64.959941-8.652359V517.102875h81.921704V-56.31991c20.474262 0 41.16147 2.777273 62.063866 8.331818 20.909121 5.538855 38.408854 11.727757 52.492475 18.5555a405.114222 405.114222 0 0 1 41.591846 23.356887c13.655485 8.744263 22.614936 14.821088 26.878352 18.241684 4.279107 3.420596 7.471066 6.191144 9.602774 8.316128l126.723441-126.071151c7.69522-8.107664 17.275579-12.158134 28.797114-12.158134 11.523777 0 21.119826 4.05047 28.812805 12.158134 8.085249 8.107664 12.151409 17.71268 12.151409 28.80608s-4.063919 20.693933-12.151409 28.797114l-133.120807 133.750681c28.590892 50.77321 42.880734 112.639821 42.880734 185.590865h143.353455c11.093401 0 20.702899 4.057194 28.797114 12.164859 8.10094 8.10094 12.176066 17.703713 12.176066 28.797114 0 11.091159-4.072885 20.700658-12.205206 28.810563zM656.953917 825.906923c-39.888273 39.888273-88.209234 59.840255-144.953917 59.840255-56.753649 0-105.061161-19.951982-144.956159-59.840255-39.888273-39.892756-59.829047-88.211476-59.829047-144.953917h409.565929c0 56.733475-19.938533 105.061161-59.826806 144.953917z"  horiz-adv-x="1024" />

    
    <glyph glyph-name="shangshengxiajiangjiantou1" unicode="&#58885;" d="M274.0999999999998 831.1L274.1 363l-209.89999999999998-8.526512829121202e-14 447.0000000000001-425.89999999999986L958.2 363l-209.8-8.526512829121202e-14-1.7053025658242404e-13 468.1z"  horiz-adv-x="1024" />

    
    <glyph glyph-name="jiantou9" unicode="&#58625;" d="M944.083879 606.463698c14.264888-18.286482 15.462157-41.208541 2.670829-51.196009l-417.191704-325.421604c-2.885723-2.261507-12.156878-7.828292-13.732769-9.578146-15.544021-17.181311-37.893029-22.338774-49.947576-11.461029l-392.908648 354.309538c-12.054547 10.887978-9.271154 33.666774 6.272867 50.889017 15.544021 17.21201 37.893029 22.349007 49.988508 11.471262l357.584118-322.443783 408.258241 318.463122C907.910005 631.483534 929.84969 624.7399459999999 944.083879 606.463698z"  horiz-adv-x="1024" />

    
    <glyph glyph-name="chushaixuanxiang" unicode="&#58626;" d="M512 275.456l253.3376-253.3376a76.6976 76.6976 0 1 1 108.544 108.544L620.6464 384l253.2352 253.3376a76.6976 76.6976 0 1 1-108.544 108.544L512 492.6464 258.6624 745.8815999999999a76.6976 76.6976 0 1 1-108.544-108.544L403.3536 384 150.1184 130.66240000000005a76.6976 76.6976 0 1 1 108.544-108.544L512 275.35360000000003z"  horiz-adv-x="1024" />

    


  </font>
</defs>
</svg>
